# xmcd
#
# Track frame offsets:
#	150
#	12350
#	25269
#	38903
#	51787
#	63511
#	75825
#	93350
#	107276
#	119523
#
# Disc length: 1766 seconds
#
# Revision: 0
# Processed by: cddbd v1.5.2PL0 Copyright (c) Steve Scherf et al.
# Submitted via: audiograbber 1.83.01
#
DISCID=7006e40a
DTITLE=Merle Haggard - The Fightin' Side Of Me
DYEAR=2005
DGENRE=Country
TTITLE0=Workin' Man Blues
TTITLE1=The Fightin' Side Of Me
TTITLE2=Big City
TTITLE3=Let's Chase Each Other Around The Room
TTITLE4=Carolyn
TTITLE5=The Roots Of My Raising
TTITLE6=I Think I'll Just Stay Here And Drink
TTITLE7=I Threw Away The Rose
TTITLE8=Tonight The Bottle Let Me Down
TTITLE9=Kentucky Gambler
EXTD=
EXTT0=
EXTT1=
EXTT2=
EXTT3=
EXTT4=
EXTT5=
EXTT6=
EXTT7=
EXTT8=
EXTT9=
PLAYORDER=
